<?xml version="1.0" standalone="no"?><!DOCTYPE svg PUBLIC "-//W3C//DTD SVG 1.1//EN" "http://www.w3.org/Graphics/SVG/1.1/DTD/svg11.dtd"><svg t="1504262892940" class="icon" style="" viewBox="0 0 1024 1024" version="1.1" xmlns="http://www.w3.org/2000/svg" p-id="997" xmlns:xlink="http://www.w3.org/1999/xlink" width="200" height="200"><defs><style type="text/css"></style></defs><path d="M779.497868 65.188698 241.788324 65.188698c-98.985432 0-179.235151 80.249719-179.235151 179.23822l0 537.716708c0 98.984409 80.249719 179.227987 179.235151 179.227987l537.709545 0c98.984409 0 179.234127-80.243579 179.234127-179.227987l0-537.716708C958.731996 145.44251 878.4833 65.188698 779.497868 65.188698zM700.063725 762.331395 321.221444 762.331395 321.221444 264.22994l369.328603 0 0 84.263126L421.793 348.493066l0 110.424972 250.070452 0 0 83.922365L421.793 542.840402l0 135.567605 278.270724 0L700.063725 762.331395z" p-id="998" fill="#1296db"></path></svg>